<?xml version="1.0"?>
<svg xmlns="http://www.w3.org/2000/svg" xmlns:xlink="http://www.w3.org/1999/xlink" version="1.1" id="Pattern" x="0px" y="0px" viewBox="0 0 283 282" style="enable-background:new 0 0 283 282;" xml:space="preserve" data-global-elvn="enableViewport, enableClick, none, startVisible, responsive, 0, notLoop, 500">
<style type="text/css">
	.st0{fill:#ffffff;}
</style>
<g xmlns="http://www.w3.org/2000/svg" id="lines" data-elvn="maskCircle, in, 0, 500, linear" class="elvn-layer">
	<polygon class="st0" id="lines_19_" points="74.2,252.3 54.3,275.3 68.3,275.3 74.1,268.5 79.9,275.3 93.9,275.3  "/>
	<polygon class="st0" id="lines_18_" points="208.2,252.3 188.2,275.3 202.2,275.3 208.1,268.5 213.9,275.3 227.8,275.3  "/>
	<polygon class="st0" id="lines_17_" points="208.2,217.5 158,275.3 172,275.3 208.1,233.8 243.6,275.3 257.5,275.3  "/>
	<polygon class="st0" id="lines_16_" points="74.2,217.5 24.3,275.3 38.3,275.3 74.1,233.8 109.7,275.3 123.7,275.3  "/>
	<polygon class="st0" id="lines_15_" points="274.5,276.8 275.7,275.3 273.3,275.3  "/>
	<polygon class="st0" id="lines_14_" points="140.7,276.7 141.8,275.3 139.5,275.3  "/>
	<polygon class="st0" id="lines_13_" points="7.1,276.7 8.3,275.3 7.1,275.3  "/>
	<polygon class="st0" id="lines_12_" points="274.4,260.3 208.2,182.8 140.7,260.3 74.2,182.8 7.2,260.3 7.1,275.3 8.3,275.3 74.1,199    139.5,275.3 141.8,275.3 208.1,199 273.3,275.3 275.7,275.3 275.9,275 275.9,258.5  "/>
	<polygon class="st0" id="lines_11_" points="274.4,225.5 208.2,148 140.7,225.7 74.2,148 7.2,225.5 7.1,242 74.1,164.3 140.7,241.8    208.1,164.3 274.5,242 275.9,240.3 275.9,223.8  "/>
	<polygon class="st0" id="lines_10_" points="274.4,190.8 208.2,113.3 140.7,190.8 74.2,113.3 7.2,190.8 7.1,207.2 74.1,129.5 140.7,207.2    208.1,129.5 274.5,207.3 275.9,205.5 275.9,189  "/>
	<polygon class="st0" id="lines_9_" points="274.4,156 208.2,78.5 140.7,156.1 74.2,78.5 7.2,156 7.1,172.5 74.1,94.8 140.7,172.3 208.1,94.8    274.5,172.5 275.9,170.8 275.9,154.3  "/>
	<polygon class="st0" id="lines_8_" points="274.4,121.3 208.2,43.8 140.7,121.4 74.2,43.8 7.2,121.4 7.1,137.6 74.1,60 140.7,137.6 208.1,60    274.5,137.8 275.9,136 275.9,119.5  "/>
	<polygon class="st0" id="lines_7_" points="274.4,86.5 208.2,9 140.7,86.6 74.2,9 7.2,86.5 7.1,103 74.1,25.3 140.7,102.9 208.1,25.3    274.5,103 275.9,101.4 275.9,84.8  "/>
	<polygon class="st0" id="lines_6_" points="274.4,51.8 234.6,5.3 220.6,5.3 274.5,68.3 275.9,66.5 275.9,50  "/>
	<polygon class="st0" id="lines_5_" points="140.7,68.1 195.3,5.3 181.3,5.3 140.7,51.9 100.7,5.3 86.7,5.3  "/>
	<polygon class="st0" id="lines_4_" points="7.1,68.1 61.5,5.3 47.5,5.3 7.2,51.9  "/>
	<polygon class="st0" id="lines_3_" points="274.4,17 264.3,5.3 250.3,5.3 274.5,33.5 275.9,31.9 275.9,15.3  "/>
	<polygon class="st0" id="lines_2_" points="7.1,33.5 31.5,5.3 17.5,5.3 7.2,17  "/>
	<polygon class="st0" id="lines_1_" points="140.7,33.4 165.1,5.3 151.1,5.3 140.7,17.1 130.5,5.3 116.5,5.3  "/>
</g>
</svg>
