<?xml version="1.0"?>
<svg xmlns="http://www.w3.org/2000/svg" xmlns:xlink="http://www.w3.org/1999/xlink" version="1.1" id="Pattern" x="0px" y="0px" viewBox="0 0 262.5 261.6" style="enable-background:new 0 0 262.5 261.6;" xml:space="preserve" data-global-elvn="enableViewport, enableClick, none, startVisible, responsive, 0, notLoop, 500">
<style type="text/css">
	.st0lll{fill:#ffffff;}
</style>
<g xmlns="http://www.w3.org/2000/svg" data-elvn="maskCircle, in, 0, 500, linear" class="elvn-layer">
	<polygon class="st0lll" points="18.6,224.3 6.6,230.8 0,243 6.4,255.1 18.6,261.6 30.6,255.4 37.5,242.9 31,231.1  "/>
	<polygon class="st0lll" points="18.6,186.9 6.6,193.4 0,205.6 6.4,217.8 18.6,224.3 30.6,218 37.5,205.6 31,193.8  "/>
	<polygon class="st0lll" points="18.6,149.5 6.6,156 0,168.3 6.4,180.4 18.6,186.9 30.6,180.6 37.5,168.2 31,156.4  "/>
	<polygon class="st0lll" points="18.6,112.1 6.6,118.6 0,130.9 6.4,143 18.6,149.5 30.6,143.3 37.5,130.8 31,119  "/>
	<polygon class="st0lll" points="18.6,74.8 6.6,81.3 0,93.5 6.4,105.6 18.6,112.1 30.6,105.9 37.5,93.4 31,81.6  "/>
	<polygon class="st0lll" points="18.6,37.4 6.6,43.9 0,56.1 6.4,68.3 18.6,74.8 30.6,68.5 37.5,56.1 31,44.3  "/>
	<polygon class="st0lll" points="18.6,0 6.6,6.5 0,18.8 6.4,30.9 18.6,37.4 30.6,31.1 37.5,18.7 31,6.9  "/>
	<polygon class="st0lll" points="56.1,224.3 44.1,230.8 37.5,243 43.9,255.1 56.1,261.6 68.1,255.4 75,242.9 68.5,231.1  "/>
	<polygon class="st0lll" points="56.1,186.9 44.1,193.4 37.5,205.6 43.9,217.8 56.1,224.3 68.1,218 75,205.6 68.5,193.8  "/>
	<polygon class="st0lll" points="56.1,149.5 44.1,156 37.5,168.3 43.9,180.4 56.1,186.9 68.1,180.6 75,168.2 68.5,156.4  "/>
	<polygon class="st0lll" points="56.1,112.1 44.1,118.6 37.5,130.9 43.9,143 56.1,149.5 68.1,143.3 75,130.8 68.5,119  "/>
	<polygon class="st0lll" points="56.1,74.8 44.1,81.3 37.5,93.5 43.9,105.6 56.1,112.1 68.1,105.9 75,93.4 68.5,81.6  "/>
	<polygon class="st0lll" points="56.1,37.4 44.1,43.9 37.5,56.1 43.9,68.3 56.1,74.8 68.1,68.5 75,56.1 68.5,44.3  "/>
	<polygon class="st0lll" points="56.1,0 44.1,6.5 37.5,18.8 43.9,30.9 56.1,37.4 68.1,31.1 75,18.7 68.5,6.9  "/>
	<polygon class="st0lll" points="93.6,224.3 81.6,230.8 75,243 81.4,255.1 93.6,261.6 105.6,255.4 112.5,242.9 106,231.1  "/>
	<polygon class="st0lll" points="93.6,186.9 81.6,193.4 75,205.6 81.4,217.8 93.6,224.3 105.6,218 112.5,205.6 106,193.8  "/>
	<polygon class="st0lll" points="93.6,149.5 81.6,156 75,168.3 81.4,180.4 93.6,186.9 105.6,180.6 112.5,168.2 106,156.4  "/>
	<polygon class="st0lll" points="93.6,112.1 81.6,118.6 75,130.9 81.4,143 93.6,149.5 105.6,143.3 112.5,130.8 106,119  "/>
	<polygon class="st0lll" points="93.6,74.8 81.6,81.3 75,93.5 81.4,105.6 93.6,112.1 105.6,105.9 112.5,93.4 106,81.6  "/>
	<polygon class="st0lll" points="93.6,37.4 81.6,43.9 75,56.1 81.4,68.3 93.6,74.8 105.6,68.5 112.5,56.1 106,44.3  "/>
	<polygon class="st0lll" points="93.6,0 81.6,6.5 75,18.8 81.4,30.9 93.6,37.4 105.6,31.1 112.5,18.7 106,6.9  "/>
	<polygon class="st0lll" points="131.1,224.3 119.1,230.8 112.5,243 118.9,255.1 131.1,261.6 143.1,255.4 150,242.9 143.5,231.1  "/>
	<polygon class="st0lll" points="131.1,186.9 119.1,193.4 112.5,205.6 118.9,217.8 131.1,224.3 143.1,218 150,205.6 143.5,193.8  "/>
	<polygon class="st0lll" points="131.1,149.5 119.1,156 112.5,168.3 118.9,180.4 131.1,186.9 143.1,180.6 150,168.2 143.5,156.4  "/>
	<polygon class="st0lll" points="131.1,112.1 119.1,118.6 112.5,130.9 118.9,143 131.1,149.5 143.1,143.3 150,130.8 143.5,119  "/>
	<polygon class="st0lll" points="131.1,74.8 119.1,81.3 112.5,93.5 118.9,105.6 131.1,112.1 143.1,105.9 150,93.4 143.5,81.6  "/>
	<polygon class="st0lll" points="131.1,37.4 119.1,43.9 112.5,56.1 118.9,68.3 131.1,74.8 143.1,68.5 150,56.1 143.5,44.3  "/>
	<polygon class="st0lll" points="131.1,0 119.1,6.5 112.5,18.8 118.9,30.9 131.1,37.4 143.1,31.1 150,18.7 143.5,6.9  "/>
	<polygon class="st0lll" points="168.6,224.3 156.6,230.8 150,243 156.4,255.1 168.6,261.6 180.6,255.4 187.5,242.9 181,231.1  "/>
	<polygon class="st0lll" points="168.6,186.9 156.6,193.4 150,205.6 156.4,217.8 168.6,224.3 180.6,218 187.5,205.6 181,193.8  "/>
	<polygon class="st0lll" points="168.6,149.5 156.6,156 150,168.3 156.4,180.4 168.6,186.9 180.6,180.6 187.5,168.2 181,156.4  "/>
	<polygon class="st0lll" points="168.6,112.1 156.6,118.6 150,130.9 156.4,143 168.6,149.5 180.6,143.3 187.5,130.8 181,119  "/>
	<polygon class="st0lll" points="168.6,74.8 156.6,81.3 150,93.5 156.4,105.6 168.6,112.1 180.6,105.9 187.5,93.4 181,81.6  "/>
	<polygon class="st0lll" points="168.6,37.4 156.6,43.9 150,56.1 156.4,68.3 168.6,74.8 180.6,68.5 187.5,56.1 181,44.3  "/>
	<polygon class="st0lll" points="168.6,0 156.6,6.5 150,18.8 156.4,30.9 168.6,37.4 180.6,31.1 187.5,18.7 181,6.9  "/>
	<polygon class="st0lll" points="206.1,224.3 194.1,230.8 187.5,243 193.9,255.1 206.1,261.6 218.1,255.4 225,242.9 218.5,231.1  "/>
	<polygon class="st0lll" points="206.1,186.9 194.1,193.4 187.5,205.6 193.9,217.8 206.1,224.3 218.1,218 225,205.6 218.5,193.8  "/>
	<polygon class="st0lll" points="206.1,149.5 194.1,156 187.5,168.3 193.9,180.4 206.1,186.9 218.1,180.6 225,168.2 218.5,156.4  "/>
	<polygon class="st0lll" points="206.1,112.1 194.1,118.6 187.5,130.9 193.9,143 206.1,149.5 218.1,143.3 225,130.8 218.5,119  "/>
	<polygon class="st0lll" points="206.1,74.8 194.1,81.3 187.5,93.5 193.9,105.6 206.1,112.1 218.1,105.9 225,93.4 218.5,81.6  "/>
	<polygon class="st0lll" points="206.1,37.4 194.1,43.9 187.5,56.1 193.9,68.3 206.1,74.8 218.1,68.5 225,56.1 218.5,44.3  "/>
	<polygon class="st0lll" points="206.1,0 194.1,6.5 187.5,18.8 193.9,30.9 206.1,37.4 218.1,31.1 225,18.7 218.5,6.9  "/>
	<polygon class="st0lll" points="243.6,224.3 231.6,230.8 225,243 231.4,255.1 243.6,261.6 255.6,255.4 262.5,242.9 256,231.1  "/>
	<polygon class="st0lll" points="243.6,186.9 231.6,193.4 225,205.6 231.4,217.8 243.6,224.3 255.6,218 262.5,205.6 256,193.8  "/>
	<polygon class="st0lll" points="243.6,149.5 231.6,156 225,168.3 231.4,180.4 243.6,186.9 255.6,180.6 262.5,168.2 256,156.4  "/>
	<polygon class="st0lll" points="243.6,112.1 231.6,118.6 225,130.9 231.4,143 243.6,149.5 255.6,143.3 262.5,130.8 256,119  "/>
	<polygon class="st0lll" points="243.6,74.8 231.6,81.3 225,93.5 231.4,105.6 243.6,112.1 255.6,105.9 262.5,93.4 256,81.6  "/>
	<polygon class="st0lll" points="243.6,37.4 231.6,43.9 225,56.1 231.4,68.3 243.6,74.8 255.6,68.5 262.5,56.1 256,44.3  "/>
	<polygon class="st0lll" points="243.6,0 231.6,6.5 225,18.8 231.4,30.9 243.6,37.4 255.6,31.1 262.5,18.7 256,6.9  "/>
</g>
</svg>
