<?xml version="1.0"?>
<svg xmlns="http://www.w3.org/2000/svg" xmlns:xlink="http://www.w3.org/1999/xlink" version="1.1" id="Isolation_Mode" x="0px" y="0px" viewBox="0 0 132.5 97.4" style="enable-background:new 0 0 132.5 97.4;" xml:space="preserve" data-global-elvn="enableViewport, enableClick, none, startVisible, responsive, 0, notLoop, 500">
<style type="text/css">
	.st0{fill:#ffffff;}
</style>
<path class="st0 elvn-layer" d="M122.5,8.3c-9.1,0-17.8,1.9-26.1,5.6c-3,1.3-5.7,2.9-8.4,4.6c-0.1,0-0.1,0.1-0.2,0.1c-0.1,0-0.1,0.1-0.2,0.1  c-4.6,3.1-8.7,6.7-12.2,11c-4.9-7-11.4-12.5-19.3-16.3c-3.4-1.6-6.8-2.9-10.4-3.8c-0.5-0.1-1.1-0.3-1.6-0.4c-0.1,0-0.1,0-0.2-0.1  c-4.1-0.9-8.4-1.4-12.8-1.4c-7.4,0-14.6,1.6-21.5,4.7c-1.8,0.8-3.6,1.8-5.2,2.8v36.7c4.6-4.2,10.1-6.3,16.5-6.3c6.5,0,12,2.3,16.7,7  c3.2,3.2,5.3,7,6.3,11.2c0.1,0.3,0.1,0.6,0.2,1c0.3,1.5,0.4,3.2,0.4,4.8v24.9h1.2h41.9h0V69.6c0-0.9,0-1.7,0.1-2.5  c0.1-0.5,0.1-1.1,0.2-1.6c0.8-4.7,2.9-8.9,6.5-12.5c4.6-4.6,10.2-6.8,16.8-6.8c6.7,0,12.2,2.3,16.7,7c0.5,0.5,1,1.1,1.4,1.6V8.6  C127.2,8.4,124.9,8.3,122.5,8.3" data-elvn="maskCircle, in, 0, 500, linear"/>
</svg>
