<?xml version="1.0"?>
<svg xmlns="http://www.w3.org/2000/svg" xmlns:xlink="http://www.w3.org/1999/xlink" version="1.1" id="Pattern" x="0px" y="0px" viewBox="0 0 297 278.4" style="enable-background:new 0 0 297 278.4;" xml:space="preserve" data-global-elvn="enableViewport, enableClick, none, startVisible, responsive, 0, notLoop, 500">
<style type="text/css">
	.stcccc0{fill:none;stroke:#ffffff;stroke-width:8;stroke-miterlimit:10;}
</style>
<g xmlns="http://www.w3.org/2000/svg" data-elvn="maskCircle, in, 0, 500, linear" class="elvn-layer">
	<circle class="stcccc0" cx="23.9" cy="255.1" r="15.3"/>
	<circle class="stcccc0" cx="23.9" cy="216.1" r="15.3"/>
	<circle class="stcccc0" cx="23.9" cy="177.2" r="15.3"/>
	<circle class="stcccc0" cx="23.9" cy="138.2" r="15.3"/>
	<circle class="stcccc0" cx="23.9" cy="99.3" r="15.3"/>
	<circle class="stcccc0" cx="23.9" cy="60.3" r="15.3"/>
	<circle class="stcccc0" cx="23.9" cy="21.4" r="15.3"/>
	<circle class="stcccc0" cx="59.8" cy="255.1" r="15.3"/>
	<circle class="stcccc0" cx="59.8" cy="216.1" r="15.3"/>
	<circle class="stcccc0" cx="59.8" cy="177.2" r="15.3"/>
	<circle class="stcccc0" cx="59.8" cy="138.2" r="15.3"/>
	<circle class="stcccc0" cx="59.8" cy="99.3" r="15.3"/>
	<circle class="stcccc0" cx="59.8" cy="60.3" r="15.3"/>
	<circle class="stcccc0" cx="59.8" cy="21.4" r="15.3"/>
	<circle class="stcccc0" cx="95.7" cy="255.1" r="15.3"/>
	<circle class="stcccc0" cx="95.7" cy="216.1" r="15.3"/>
	<circle class="stcccc0" cx="95.7" cy="177.2" r="15.3"/>
	<circle class="stcccc0" cx="95.7" cy="138.2" r="15.3"/>
	<circle class="stcccc0" cx="95.7" cy="99.3" r="15.3"/>
	<circle class="stcccc0" cx="95.7" cy="60.3" r="15.3"/>
	<circle class="stcccc0" cx="95.7" cy="21.4" r="15.3"/>
	<circle class="stcccc0" cx="131.6" cy="255.1" r="15.3"/>
	<circle class="stcccc0" cx="131.6" cy="216.1" r="15.3"/>
	<circle class="stcccc0" cx="131.6" cy="177.2" r="15.3"/>
	<circle class="stcccc0" cx="131.6" cy="138.2" r="15.3"/>
	<circle class="stcccc0" cx="131.6" cy="99.3" r="15.3"/>
	<circle class="stcccc0" cx="131.6" cy="60.3" r="15.3"/>
	<circle class="stcccc0" cx="131.6" cy="21.4" r="15.3"/>
	<circle class="stcccc0" cx="167.5" cy="255.1" r="15.3"/>
	<circle class="stcccc0" cx="167.5" cy="216.1" r="15.3"/>
	<circle class="stcccc0" cx="167.5" cy="177.2" r="15.3"/>
	<circle class="stcccc0" cx="167.5" cy="138.2" r="15.3"/>
	<circle class="stcccc0" cx="167.5" cy="99.3" r="15.3"/>
	<circle class="stcccc0" cx="167.5" cy="60.3" r="15.3"/>
	<circle class="stcccc0" cx="167.5" cy="21.4" r="15.3"/>
	<circle class="stcccc0" cx="203.4" cy="255.1" r="15.3"/>
	<circle class="stcccc0" cx="203.4" cy="216.1" r="15.3"/>
	<circle class="stcccc0" cx="203.4" cy="177.2" r="15.3"/>
	<circle class="stcccc0" cx="203.4" cy="138.2" r="15.3"/>
	<circle class="stcccc0" cx="203.4" cy="99.3" r="15.3"/>
	<circle class="stcccc0" cx="203.4" cy="60.3" r="15.3"/>
	<circle class="stcccc0" cx="203.4" cy="21.4" r="15.3"/>
	<circle class="stcccc0" cx="239.3" cy="255.1" r="15.3"/>
	<circle class="stcccc0" cx="239.3" cy="216.1" r="15.3"/>
	<circle class="stcccc0" cx="239.3" cy="177.2" r="15.3"/>
	<circle class="stcccc0" cx="239.3" cy="138.2" r="15.3"/>
	<circle class="stcccc0" cx="239.3" cy="99.3" r="15.3"/>
	<circle class="stcccc0" cx="239.3" cy="60.3" r="15.3"/>
	<circle class="stcccc0" cx="239.3" cy="21.4" r="15.3"/>
	<circle class="stcccc0" cx="275.2" cy="255.1" r="15.3"/>
	<circle class="stcccc0" cx="275.2" cy="216.1" r="15.3"/>
	<circle class="stcccc0" cx="275.2" cy="177.2" r="15.3"/>
	<circle class="stcccc0" cx="275.2" cy="138.2" r="15.3"/>
	<circle class="stcccc0" cx="275.2" cy="99.3" r="15.3"/>
	<circle class="stcccc0" cx="275.2" cy="60.3" r="15.3"/>
	<circle class="stcccc0" cx="275.2" cy="21.4" r="15.3"/>
</g>
</svg>
